STARTFONT 2.1
COMMENT Recovered from arc.ast's:ST8 AST (MIT CADR AST source recovered from ARC!!!)
FONT MIT-CADR-ST8
SIZE 14 72 72
FONTBOUNDINGBOX 16 14 0 -3
STARTPROPERTIES 2
FONT_ASCENT 11
FONT_DESCENT 3
ENDPROPERTIES
CHARS 123
STARTCHAR C0001
ENCODING -1 1
SWIDTH 571 0
DWIDTH 8 0
BBX 16 14 0 -3
BITMAP
0000
0600
1C00
7000
FE00
FE00
0000
FE00
FE00
0000
0000
0000
0000
0000
ENDCHAR
STARTCHAR C0002
ENCODING -1 2
SWIDTH 0 0
DWIDTH 0 0
BBX 16 14 0 -3
BITMAP
0000
0000
0000
0000
0000
0000
0000
0000
0000
0000
0000
8000
E000
F800
ENDCHAR
STARTCHAR C0003
ENCODING -1 3
SWIDTH 571 0
DWIDTH 8 0
BBX 16 14 0 -3
BITMAP
0000
3C00
6600
6600
6600
3C00
0000
3C00
6600
6600
6600
3C00
0000
0000
ENDCHAR
STARTCHAR C0004
ENCODING -1 4
SWIDTH 1143 0
DWIDTH 16 0
BBX 16 14 0 -3
BITMAP
0000
0000
0000
0000
0000
0000
0000
0000
0000
0000
0000
0000
0000
0000
ENDCHAR
STARTCHAR C0005
ENCODING -1 5
SWIDTH 571 0
DWIDTH 8 0
BBX 16 14 0 -3
BITMAP
FF00
8100
8100
8100
8100
9900
BD00
BD00
9900
8100
8100
8100
8100
FF00
ENDCHAR
STARTCHAR C0006
ENCODING -1 6
SWIDTH 571 0
DWIDTH 8 0
BBX 16 14 0 -3
BITMAP
0000
3800
6400
C200
CE00
DA00
DA00
DA00
CC00
6000
3C00
0000
0000
0000
ENDCHAR
STARTCHAR C0007
ENCODING -1 7
SWIDTH 1143 0
DWIDTH 16 0
BBX 16 14 0 -3
BITMAP
0000
0000
0000
1800
3C00
3C00
1800
0000
0000
0000
0000
0000
0000
0000
ENDCHAR
STARTCHAR C000B
ENCODING -1 11
SWIDTH 786 0
DWIDTH 11 0
BBX 16 14 0 -3
BITMAP
3E00
6300
4100
6300
3600
1400
3600
3200
6300
6100
C180
FF80
0000
0000
ENDCHAR
STARTCHAR C000D
ENCODING -1 13
SWIDTH 571 0
DWIDTH 8 0
BBX 16 14 0 -3
BITMAP
0000
0000
0000
0000
0000
0000
0000
0000
0000
0000
0000
0000
0000
0000
ENDCHAR
STARTCHAR C000E
ENCODING -1 14
SWIDTH 571 0
DWIDTH 8 0
BBX 16 14 0 -3
BITMAP
0000
0000
0000
0C00
FE00
FE00
3000
FE00
FE00
6000
0000
0000
0000
0000
ENDCHAR
STARTCHAR C000F
ENCODING -1 15
SWIDTH 571 0
DWIDTH 8 0
BBX 16 14 0 -3
BITMAP
0000
6600
6600
6600
6600
6600
0000
0000
0000
0000
0000
0000
0000
0000
ENDCHAR
STARTCHAR C0010
ENCODING -1 16
SWIDTH 1000 0
DWIDTH 14 0
BBX 16 14 0 -3
BITMAP
0000
0008
0010
0020
0260
0360
7FE0
7FE0
0360
0260
0020
0010
0008
0000
ENDCHAR
STARTCHAR C0011
ENCODING -1 17
SWIDTH 500 0
DWIDTH 7 0
BBX 16 14 0 -3
BITMAP
0000
0000
3000
3000
3000
3000
3000
3000
0000
3000
3000
0000
0000
0000
ENDCHAR
STARTCHAR C0012
ENCODING -1 18
SWIDTH 571 0
DWIDTH 8 0
BBX 16 14 0 -3
BITMAP
0000
0000
0000
3C00
7E00
6600
6600
7E00
3C00
0000
0000
0000
0000
0000
ENDCHAR
STARTCHAR C0013
ENCODING -1 19
SWIDTH 1143 0
DWIDTH 16 0
BBX 16 14 0 -3
BITMAP
0000
0000
0000
6000
6E00
DB00
0C00
0600
0300
1B00
0E00
0000
0000
0000
ENDCHAR
STARTCHAR C0014
ENCODING -1 20
SWIDTH 1143 0
DWIDTH 16 0
BBX 16 14 0 -3
BITMAP
0FE0
1FF0
1830
1830
1830
1830
1830
1830
3838
5FF4
8FE2
F55E
2AA8
1FF0
ENDCHAR
STARTCHAR C0015
ENCODING -1 21
SWIDTH 714 0
DWIDTH 10 0
BBX 16 14 0 -3
BITMAP
0000
0000
3F80
3F80
0000
0000
0000
0000
0000
0000
0000
0000
0000
0000
ENDCHAR
STARTCHAR C0016
ENCODING -1 22
SWIDTH 571 0
DWIDTH 8 0
BBX 16 14 0 -3
BITMAP
0000
4400
AC00
A800
5800
1000
3000
6800
5400
D400
8800
0000
0000
0000
ENDCHAR
STARTCHAR C0017
ENCODING -1 23
SWIDTH 571 0
DWIDTH 8 0
BBX 16 14 0 -3
BITMAP
0000
0000
C600
C600
6C00
6C00
3800
3800
1000
0000
0000
0000
0000
0000
ENDCHAR
STARTCHAR C0018
ENCODING -1 24
SWIDTH 571 0
DWIDTH 8 0
BBX 16 14 0 -3
BITMAP
0000
0000
1000
3800
3800
6C00
6C00
C600
C600
0000
0000
0000
0000
0000
ENDCHAR
STARTCHAR C0019
ENCODING -1 25
SWIDTH 1143 0
DWIDTH 16 0
BBX 16 14 0 -3
BITMAP
0000
0000
F030
FC38
7FFC
3FFE
3FFF
3FFE
7FFC
FC38
F030
0000
0000
0000
ENDCHAR
STARTCHAR C001A
ENCODING -1 26
SWIDTH 571 0
DWIDTH 8 0
BBX 16 14 0 -3
BITMAP
0000
C000
7000
1C00
FE00
FE00
0000
FE00
FE00
0000
0000
0000
0000
0000
ENDCHAR
STARTCHAR C001B
ENCODING -1 27
SWIDTH 571 0
DWIDTH 8 0
BBX 16 14 0 -3
BITMAP
3000
7800
FC00
B400
F800
7C00
B400
FC00
7800
3000
3000
0000
0000
0000
ENDCHAR
STARTCHAR C001C
ENCODING -1 28
SWIDTH 571 0
DWIDTH 8 0
BBX 16 14 0 -3
BITMAP
0000
3000
6800
6800
3000
3000
6A00
C400
C400
E600
7800
0000
0000
0000
ENDCHAR
STARTCHAR C001D
ENCODING -1 29
SWIDTH 714 0
DWIDTH 10 0
BBX 16 14 0 -3
BITMAP
0000
1E00
3100
3100
1800
1E00
3300
3300
1E00
0600
2300
2300
1E00
0000
ENDCHAR
STARTCHAR C001E
ENCODING -1 30
SWIDTH 571 0
DWIDTH 8 0
BBX 16 14 0 -3
BITMAP
0000
3800
3800
3800
3800
3800
3800
3800
3800
0000
3800
3800
3800
0000
ENDCHAR
STARTCHAR C001F
ENCODING -1 31
SWIDTH 1143 0
DWIDTH 16 0
BBX 16 14 0 -3
BITMAP
FFFC
FFFC
FFFC
FFFC
FFFC
FFFC
FFFC
FFFC
FFFC
FFFC
FFFC
FFFC
FFFC
0000
ENDCHAR
STARTCHAR C0020
ENCODING -1 32
SWIDTH 286 0
DWIDTH 4 0
BBX 16 14 0 -3
BITMAP
0000
0000
0000
0000
0000
0000
0000
0000
0000
0000
0000
0000
0000
0000
ENDCHAR
STARTCHAR C0021
ENCODING -1 33
SWIDTH 714 0
DWIDTH 10 0
BBX 16 14 0 -3
BITMAP
0000
1000
3800
7C00
EE00
6C00
6C00
6C00
6C00
6C00
6C00
6C00
4400
0000
ENDCHAR
STARTCHAR C0022
ENCODING -1 34
SWIDTH 1143 0
DWIDTH 16 0
BBX 16 14 0 -3
BITMAP
0700
1900
2200
4FFC
C804
8FF8
9840
EF80
8880
CF00
7E00
0000
0000
0000
ENDCHAR
STARTCHAR C0023
ENCODING -1 35
SWIDTH 571 0
DWIDTH 8 0
BBX 16 14 0 -3
BITMAP
0000
0900
1B00
1200
7F00
2400
FE00
4800
D800
9000
0000
0000
0000
0000
ENDCHAR
STARTCHAR C0024
ENCODING -1 36
SWIDTH 714 0
DWIDTH 10 0
BBX 16 14 0 -3
BITMAP
0000
1400
2200
4100
C180
C180
C180
C180
C180
C180
4100
2200
1400
0000
ENDCHAR
STARTCHAR C0025
ENCODING -1 37
SWIDTH 643 0
DWIDTH 9 0
BBX 16 14 0 -3
BITMAP
0000
0600
0C00
1800
3C00
7600
E600
F600
3C00
1800
0C00
0000
0000
0000
ENDCHAR
STARTCHAR C0026
ENCODING -1 38
SWIDTH 71 0
DWIDTH 1 0
BBX 16 14 0 -3
BITMAP
0000
3F00
6180
C0C0
8040
8040
8040
8040
8040
C0C0
6180
3F00
0000
0000
ENDCHAR
STARTCHAR C0027
ENCODING -1 39
SWIDTH 286 0
DWIDTH 4 0
BBX 16 14 0 -3
BITMAP
6000
6000
6000
4000
0000
0000
0000
0000
0000
0000
0000
0000
0000
0000
ENDCHAR
STARTCHAR C0028
ENCODING -1 40
SWIDTH 429 0
DWIDTH 6 0
BBX 16 14 0 -3
BITMAP
0000
0800
1000
2000
6000
6000
6000
6000
6000
6000
2000
1000
0800
0000
ENDCHAR
STARTCHAR C0029
ENCODING -1 41
SWIDTH 429 0
DWIDTH 6 0
BBX 16 14 0 -3
BITMAP
0000
4000
2000
1000
1800
1800
1800
1800
1800
1800
1000
2000
4000
0000
ENDCHAR
STARTCHAR C002A
ENCODING -1 42
SWIDTH 571 0
DWIDTH 8 0
BBX 16 14 0 -3
BITMAP
0000
0000
0000
1800
5A00
7E00
3C00
7E00
5A00
1800
0000
0000
0000
0000
ENDCHAR
STARTCHAR C002B
ENCODING -1 43
SWIDTH 571 0
DWIDTH 8 0
BBX 16 14 0 -3
BITMAP
0000
0000
0000
1800
1800
7E00
7E00
1800
1800
0000
0000
0000
0000
0000
ENDCHAR
STARTCHAR C002C
ENCODING -1 44
SWIDTH 571 0
DWIDTH 8 0
BBX 16 14 0 -3
BITMAP
0000
0000
0000
0000
0000
0000
0000
0000
0000
1C00
1C00
0C00
1800
3000
ENDCHAR
STARTCHAR C002D
ENCODING -1 45
SWIDTH 571 0
DWIDTH 8 0
BBX 16 14 0 -3
BITMAP
0000
0000
0000
0000
0000
7E00
7E00
0000
0000
0000
0000
0000
0000
0000
ENDCHAR
STARTCHAR C002E
ENCODING -1 46
SWIDTH 429 0
DWIDTH 6 0
BBX 16 14 0 -3
BITMAP
0000
0000
0000
0000
0000
0000
0000
0000
7000
7000
7000
0000
0000
0000
ENDCHAR
STARTCHAR C002F
ENCODING -1 47
SWIDTH 571 0
DWIDTH 8 0
BBX 16 14 0 -3
BITMAP
0000
0600
0600
0C00
0C00
1800
1800
3000
3000
6000
6000
C000
C000
0000
ENDCHAR
STARTCHAR C0030
ENCODING -1 48
SWIDTH 571 0
DWIDTH 8 0
BBX 16 14 0 -3
BITMAP
0100
0F00
1700
2700
6B00
4B00
C200
C600
C400
E800
7000
0000
0000
0000
ENDCHAR
STARTCHAR C0031
ENCODING -1 49
SWIDTH 571 0
DWIDTH 8 0
BBX 16 14 0 -3
BITMAP
0000
0600
0E00
1C00
3C00
0C00
0C00
1800
1800
1800
7E00
0000
0000
0000
ENDCHAR
STARTCHAR C0032
ENCODING -1 50
SWIDTH 571 0
DWIDTH 8 0
BBX 16 14 0 -3
BITMAP
0000
1E00
3700
2300
0300
0600
0C00
1800
3100
7F00
FE00
0000
0000
0000
ENDCHAR
STARTCHAR C0033
ENCODING -1 51
SWIDTH 571 0
DWIDTH 8 0
BBX 16 14 0 -3
BITMAP
0000
1F00
3F00
0600
0C00
1C00
0C00
0600
8600
CE00
7C00
0000
0000
0000
ENDCHAR
STARTCHAR C0034
ENCODING -1 52
SWIDTH 571 0
DWIDTH 8 0
BBX 16 14 0 -3
BITMAP
0000
0200
0600
0E00
1E00
3400
6C00
CC00
FE00
1800
1800
0000
0000
0000
ENDCHAR
STARTCHAR C0035
ENCODING -1 53
SWIDTH 571 0
DWIDTH 8 0
BBX 16 14 0 -3
BITMAP
0000
1F00
3E00
6000
F000
1800
0C00
0C00
0C00
D800
7000
0000
0000
0000
ENDCHAR
STARTCHAR C0036
ENCODING -1 54
SWIDTH 571 0
DWIDTH 8 0
BBX 16 14 0 -3
BITMAP
0000
0F00
1300
3000
7C00
4600
C600
C600
C400
C800
7000
0000
0000
0000
ENDCHAR
STARTCHAR C0037
ENCODING -1 55
SWIDTH 571 0
DWIDTH 8 0
BBX 16 14 0 -3
BITMAP
0000
3F00
7E00
0600
0C00
0C00
1800
3000
3000
6000
6000
0000
0000
0000
ENDCHAR
STARTCHAR C0038
ENCODING -1 56
SWIDTH 571 0
DWIDTH 8 0
BBX 16 14 0 -3
BITMAP
0000
1C00
3200
3200
3600
1C00
6600
C200
C200
E600
7C00
0000
0000
0000
ENDCHAR
STARTCHAR C0039
ENCODING -1 57
SWIDTH 571 0
DWIDTH 8 0
BBX 16 14 0 -3
BITMAP
0000
0E00
1300
2300
6300
6300
6200
3E00
0C00
C800
F000
0000
0000
0000
ENDCHAR
STARTCHAR C003A
ENCODING -1 58
SWIDTH 571 0
DWIDTH 8 0
BBX 16 14 0 -3
BITMAP
0000
0000
0000
3800
3800
3800
0000
0000
3800
3800
3800
0000
0000
0000
ENDCHAR
STARTCHAR C003B
ENCODING -1 59
SWIDTH 571 0
DWIDTH 8 0
BBX 16 14 0 -3
BITMAP
0000
0000
0000
0000
3800
3800
0000
0000
0000
3800
3800
0800
1800
3000
ENDCHAR
STARTCHAR C003C
ENCODING -1 60
SWIDTH 571 0
DWIDTH 8 0
BBX 16 14 0 -3
BITMAP
0000
0000
0000
0C00
1800
3000
6000
C000
6000
3000
1800
0C00
0000
0000
ENDCHAR
STARTCHAR C003D
ENCODING -1 61
SWIDTH 571 0
DWIDTH 8 0
BBX 16 14 0 -3
BITMAP
0000
0000
0000
0000
7E00
7E00
0000
0000
7E00
7E00
0000
0000
0000
0000
ENDCHAR
STARTCHAR C003E
ENCODING -1 62
SWIDTH 571 0
DWIDTH 8 0
BBX 16 14 0 -3
BITMAP
0000
0000
0000
C000
6000
3000
1800
0C00
1800
3000
6000
C000
0000
0000
ENDCHAR
STARTCHAR C003F
ENCODING -1 63
SWIDTH 571 0
DWIDTH 8 0
BBX 16 14 0 -3
BITMAP
0000
0000
0000
0000
0000
0000
0800
FC00
FE00
0300
FE00
FC00
0800
0000
ENDCHAR
STARTCHAR C0040
ENCODING -1 64
SWIDTH 1143 0
DWIDTH 16 0
BBX 16 14 0 -3
BITMAP
07E0
1810
2EE8
7114
6C6A
CC66
CD66
C102
D832
CFE2
C7C6
600C
3FF8
0FE0
ENDCHAR
STARTCHAR C0041
ENCODING -1 65
SWIDTH 643 0
DWIDTH 9 0
BBX 16 14 0 -3
BITMAP
0000
0800
1C00
1C00
1400
3600
3600
3E00
6300
6300
F780
0000
0000
0000
ENDCHAR
STARTCHAR C0042
ENCODING -1 66
SWIDTH 643 0
DWIDTH 9 0
BBX 16 14 0 -3
BITMAP
0000
FC00
6600
6200
6600
7C00
6600
6300
6300
6700
FE00
0000
0000
0000
ENDCHAR
STARTCHAR C0043
ENCODING -1 67
SWIDTH 643 0
DWIDTH 9 0
BBX 16 14 0 -3
BITMAP
0000
3E00
6300
C100
C000
C000
C000
C000
C100
6300
3E00
0000
0000
0000
ENDCHAR
STARTCHAR C0044
ENCODING -1 68
SWIDTH 714 0
DWIDTH 10 0
BBX 16 14 0 -3
BITMAP
0000
FE00
6300
6180
6180
6180
6180
6180
6180
6300
FE00
0000
0000
0000
ENDCHAR
STARTCHAR C0045
ENCODING -1 69
SWIDTH 571 0
DWIDTH 8 0
BBX 16 14 0 -3
BITMAP
0000
FC00
6600
6000
6400
7C00
6400
6000
6000
6300
FE00
0000
0000
0000
ENDCHAR
STARTCHAR C0046
ENCODING -1 70
SWIDTH 571 0
DWIDTH 8 0
BBX 16 14 0 -3
BITMAP
0000
FE00
6300
6000
6400
7C00
6400
6000
6000
6000
F000
0000
0000
0000
ENDCHAR
STARTCHAR C0047
ENCODING -1 71
SWIDTH 643 0
DWIDTH 9 0
BBX 16 14 0 -3
BITMAP
0000
3E00
6300
C100
C000
C000
C000
C380
C100
6300
3E00
0000
0000
0000
ENDCHAR
STARTCHAR C0048
ENCODING -1 72
SWIDTH 714 0
DWIDTH 10 0
BBX 16 14 0 -3
BITMAP
0000
F780
6300
6300
6300
7F00
6300
6300
6300
6300
F780
0000
0000
0000
ENDCHAR
STARTCHAR C0049
ENCODING -1 73
SWIDTH 357 0
DWIDTH 5 0
BBX 16 14 0 -3
BITMAP
0000
F000
6000
6000
6000
6000
6000
6000
6000
6000
F000
0000
0000
0000
ENDCHAR
STARTCHAR C004A
ENCODING -1 74
SWIDTH 500 0
DWIDTH 7 0
BBX 16 14 0 -3
BITMAP
0000
3C00
1800
1800
1800
1800
1800
1800
D800
D800
7000
0000
0000
0000
ENDCHAR
STARTCHAR C004B
ENCODING -1 75
SWIDTH 786 0
DWIDTH 11 0
BBX 16 14 0 -3
BITMAP
0000
F380
6600
6C00
7800
7000
7800
6C00
6600
6300
F7C0
0000
0000
0000
ENDCHAR
STARTCHAR C004C
ENCODING -1 76
SWIDTH 571 0
DWIDTH 8 0
BBX 16 14 0 -3
BITMAP
0000
F000
6000
6000
6000
6000
6000
6000
6000
6300
FE00
0000
0000
0000
ENDCHAR
STARTCHAR C004D
ENCODING -1 77
SWIDTH 1000 0
DWIDTH 14 0
BBX 16 14 0 -3
BITMAP
0000
F8F8
7070
78F0
78F0
6DB0
6DB0
6730
6730
6230
F278
0000
0000
0000
ENDCHAR
STARTCHAR C004E
ENCODING -1 78
SWIDTH 786 0
DWIDTH 11 0
BBX 16 14 0 -3
BITMAP
0000
FBC0
7180
7980
7980
6D80
6D80
6780
6780
6380
F7C0
0000
0000
0000
ENDCHAR
STARTCHAR C004F
ENCODING -1 79
SWIDTH 714 0
DWIDTH 10 0
BBX 16 14 0 -3
BITMAP
0000
3E00
6300
C180
C180
C180
C180
C180
C180
6300
3E00
0000
0000
0000
ENDCHAR
STARTCHAR C0050
ENCODING -1 80
SWIDTH 643 0
DWIDTH 9 0
BBX 16 14 0 -3
BITMAP
0000
FC00
6600
6300
6300
6300
6600
7C00
6000
6000
F000
0000
0000
0000
ENDCHAR
STARTCHAR C0051
ENCODING -1 81
SWIDTH 571 0
DWIDTH 8 0
BBX 16 14 0 -3
BITMAP
0000
3800
6400
C200
C200
C200
C200
C200
C200
6400
3800
0C00
0600
0000
ENDCHAR
STARTCHAR C0052
ENCODING -1 82
SWIDTH 714 0
DWIDTH 10 0
BBX 16 14 0 -3
BITMAP
0000
FC00
6600
6300
6300
6300
6600
7C00
6600
6300
F7C0
0000
0000
0000
ENDCHAR
STARTCHAR C0053
ENCODING -1 83
SWIDTH 571 0
DWIDTH 8 0
BBX 16 14 0 -3
BITMAP
0000
7C00
CC00
C400
6000
3800
0C00
0600
8600
CE00
FC00
0000
0000
0000
ENDCHAR
STARTCHAR C0054
ENCODING -1 84
SWIDTH 643 0
DWIDTH 9 0
BBX 16 14 0 -3
BITMAP
0000
FF00
9900
1800
1800
1800
1800
1800
1800
1800
3C00
0000
0000
0000
ENDCHAR
STARTCHAR C0055
ENCODING -1 85
SWIDTH 714 0
DWIDTH 10 0
BBX 16 14 0 -3
BITMAP
0000
F1C0
6080
6080
6080
6080
6080
6080
6080
3100
1E00
0000
0000
0000
ENDCHAR
STARTCHAR C0056
ENCODING -1 86
SWIDTH 857 0
DWIDTH 12 0
BBX 16 14 0 -3
BITMAP
0000
F1E0
60C0
3180
3180
1B00
1B00
0E00
0E00
0400
0400
0000
0000
0000
ENDCHAR
STARTCHAR C0057
ENCODING -1 87
SWIDTH 1143 0
DWIDTH 16 0
BBX 16 14 0 -3
BITMAP
0000
EFEE
66CC
3298
3398
1BB0
1BB0
0EE0
0EE0
0440
0440
0000
0000
0000
ENDCHAR
STARTCHAR C0058
ENCODING -1 88
SWIDTH 643 0
DWIDTH 9 0
BBX 16 14 0 -3
BITMAP
0000
F700
6600
3400
3C00
1800
1800
3C00
2C00
6600
EF00
0000
0000
0000
ENDCHAR
STARTCHAR C0059
ENCODING -1 89
SWIDTH 786 0
DWIDTH 11 0
BBX 16 14 0 -3
BITMAP
0000
F3C0
6180
3300
3300
1E00
1E00
0C00
0C00
0C00
1E00
0000
0000
0000
ENDCHAR
STARTCHAR C005A
ENCODING -1 90
SWIDTH 786 0
DWIDTH 11 0
BBX 16 14 0 -3
BITMAP
0000
7F80
7F80
4300
0600
0C00
1800
3000
6040
FFC0
FF80
0000
0000
0000
ENDCHAR
STARTCHAR C005B
ENCODING -1 91
SWIDTH 286 0
DWIDTH 4 0
BBX 16 14 0 -3
BITMAP
F000
C000
C000
C000
C000
C000
C000
C000
C000
C000
C000
C000
F000
0000
ENDCHAR
STARTCHAR C005C
ENCODING -1 92
SWIDTH 571 0
DWIDTH 8 0
BBX 16 14 0 -3
BITMAP
0000
C000
6000
6000
3000
3000
1800
1800
0C00
0C00
0600
0600
0300
0000
ENDCHAR
STARTCHAR C005D
ENCODING -1 93
SWIDTH 357 0
DWIDTH 5 0
BBX 16 14 0 -3
BITMAP
F000
3000
3000
3000
3000
3000
3000
3000
3000
3000
3000
3000
F000
0000
ENDCHAR
STARTCHAR C005E
ENCODING -1 94
SWIDTH 571 0
DWIDTH 8 0
BBX 16 14 0 -3
BITMAP
0000
1800
3C00
7E00
5A00
1800
1800
1800
1800
0000
0000
0000
0000
0000
ENDCHAR
STARTCHAR C005F
ENCODING -1 95
SWIDTH 571 0
DWIDTH 8 0
BBX 16 14 0 -3
BITMAP
0000
0000
0000
3000
6000
FF00
FF00
6000
3000
0000
0000
0000
0000
0000
ENDCHAR
STARTCHAR C0060
ENCODING -1 96
SWIDTH 0 0
DWIDTH 0 0
BBX 16 14 0 -3
BITMAP
0000
0000
0000
0000
0000
0000
0000
0000
0000
0000
0000
0000
0000
FF00
ENDCHAR
STARTCHAR C0061
ENCODING -1 97
SWIDTH 429 0
DWIDTH 6 0
BBX 16 14 0 -3
BITMAP
0000
0000
0000
0000
3000
5800
1800
7800
9800
9800
7C00
0000
0000
0000
ENDCHAR
STARTCHAR C0062
ENCODING -1 98
SWIDTH 571 0
DWIDTH 8 0
BBX 16 14 0 -3
BITMAP
6000
E000
6000
6000
7C00
6600
6600
6600
6600
6400
F800
0000
0000
0000
ENDCHAR
STARTCHAR C0063
ENCODING -1 99
SWIDTH 500 0
DWIDTH 7 0
BBX 16 14 0 -3
BITMAP
0000
0000
0000
0000
3800
6400
C000
C000
C000
6400
3800
0000
0000
0000
ENDCHAR
STARTCHAR C0064
ENCODING -1 100
SWIDTH 500 0
DWIDTH 7 0
BBX 16 14 0 -3
BITMAP
0C00
1C00
0C00
0C00
7C00
CC00
CC00
CC00
CC00
4C00
3E00
0000
0000
0000
ENDCHAR
STARTCHAR C0065
ENCODING -1 101
SWIDTH 500 0
DWIDTH 7 0
BBX 16 14 0 -3
BITMAP
0000
0000
0000
0000
3800
4400
FC00
C000
C000
6400
3800
0000
0000
0000
ENDCHAR
STARTCHAR C0066
ENCODING -1 102
SWIDTH 357 0
DWIDTH 5 0
BBX 16 14 0 -3
BITMAP
3000
6800
6000
6000
F000
6000
6000
6000
6000
6000
F000
0000
0000
0000
ENDCHAR
STARTCHAR C0067
ENCODING -1 103
SWIDTH 571 0
DWIDTH 8 0
BBX 16 14 0 -3
BITMAP
0000
0000
0000
0000
7A00
CC00
CC00
7800
C000
FC00
7E00
C200
E200
7C00
ENDCHAR
STARTCHAR C0068
ENCODING -1 104
SWIDTH 571 0
DWIDTH 8 0
BBX 16 14 0 -3
BITMAP
6000
E000
6000
6000
6C00
7600
6200
6200
6200
6200
F700
0000
0000
0000
ENDCHAR
STARTCHAR C0069
ENCODING -1 105
SWIDTH 286 0
DWIDTH 4 0
BBX 16 14 0 -3
BITMAP
0000
6000
6000
0000
6000
E000
6000
6000
6000
6000
F000
0000
0000
0000
ENDCHAR
STARTCHAR C006A
ENCODING -1 106
SWIDTH 429 0
DWIDTH 6 0
BBX 16 14 0 -3
BITMAP
0000
1800
1800
0000
1800
3800
1800
1800
1800
1800
1800
D800
D800
7000
ENDCHAR
STARTCHAR C006B
ENCODING -1 107
SWIDTH 571 0
DWIDTH 8 0
BBX 16 14 0 -3
BITMAP
6000
E000
6000
6000
6600
6C00
7800
7800
6C00
6600
F300
0000
0000
0000
ENDCHAR
STARTCHAR C006C
ENCODING -1 108
SWIDTH 286 0
DWIDTH 4 0
BBX 16 14 0 -3
BITMAP
6000
E000
6000
6000
6000
6000
6000
6000
6000
6000
F000
0000
0000
0000
ENDCHAR
STARTCHAR C006D
ENCODING -1 109
SWIDTH 857 0
DWIDTH 12 0
BBX 16 14 0 -3
BITMAP
0000
0000
0000
0000
DDC0
6660
6660
6660
6660
6660
F770
0000
0000
0000
ENDCHAR
STARTCHAR C006E
ENCODING -1 110
SWIDTH 571 0
DWIDTH 8 0
BBX 16 14 0 -3
BITMAP
0000
0000
0000
0000
DC00
6600
6600
6600
6600
6600
F700
0000
0000
0000
ENDCHAR
STARTCHAR C006F
ENCODING -1 111
SWIDTH 500 0
DWIDTH 7 0
BBX 16 14 0 -3
BITMAP
0000
0000
0000
0000
3800
6400
C200
C200
C200
6400
3800
0000
0000
0000
ENDCHAR
STARTCHAR C0070
ENCODING -1 112
SWIDTH 571 0
DWIDTH 8 0
BBX 16 14 0 -3
BITMAP
0000
0000
0000
0000
5800
E400
6600
6600
6600
6600
7C00
6000
6000
F000
ENDCHAR
STARTCHAR C0071
ENCODING -1 113
SWIDTH 571 0
DWIDTH 8 0
BBX 16 14 0 -3
BITMAP
0000
0000
0000
0000
3400
4E00
CC00
CC00
CC00
CC00
7C00
0C00
0C00
1E00
ENDCHAR
STARTCHAR C0072
ENCODING -1 114
SWIDTH 500 0
DWIDTH 7 0
BBX 16 14 0 -3
BITMAP
0000
0000
0000
0000
5C00
EC00
6000
6000
6000
6000
F000
0000
0000
0000
ENDCHAR
STARTCHAR C0073
ENCODING -1 115
SWIDTH 429 0
DWIDTH 6 0
BBX 16 14 0 -3
BITMAP
0000
0000
0000
0000
7000
D800
6000
3000
1800
D800
7000
0000
0000
0000
ENDCHAR
STARTCHAR C0074
ENCODING -1 116
SWIDTH 357 0
DWIDTH 5 0
BBX 16 14 0 -3
BITMAP
0000
0000
2000
6000
F000
6000
6000
6000
6000
6800
3000
0000
0000
0000
ENDCHAR
STARTCHAR C0075
ENCODING -1 117
SWIDTH 571 0
DWIDTH 8 0
BBX 16 14 0 -3
BITMAP
0000
0000
0000
0000
EF00
6600
6600
6600
6600
6600
3B00
0000
0000
0000
ENDCHAR
STARTCHAR C0076
ENCODING -1 118
SWIDTH 643 0
DWIDTH 9 0
BBX 16 14 0 -3
BITMAP
0000
0000
0000
0000
F780
6300
3600
3600
1C00
1C00
0800
0000
0000
0000
ENDCHAR
STARTCHAR C0077
ENCODING -1 119
SWIDTH 929 0
DWIDTH 13 0
BBX 16 14 0 -3
BITMAP
0000
0000
0000
0000
F278
6230
3760
3760
1DC0
1DC0
0880
0000
0000
0000
ENDCHAR
STARTCHAR C0078
ENCODING -1 120
SWIDTH 571 0
DWIDTH 8 0
BBX 16 14 0 -3
BITMAP
0000
0000
0000
0000
F700
6600
3C00
1800
3C00
6600
EF00
0000
0000
0000
ENDCHAR
STARTCHAR C0079
ENCODING -1 121
SWIDTH 643 0
DWIDTH 9 0
BBX 16 14 0 -3
BITMAP
0000
0000
0000
0000
F780
6300
3600
3600
1C00
1C00
0800
0800
D800
7000
ENDCHAR
STARTCHAR C007A
ENCODING -1 122
SWIDTH 571 0
DWIDTH 8 0
BBX 16 14 0 -3
BITMAP
0000
0000
0000
0000
3F00
4600
0C00
1800
3000
6100
FE00
0000
0000
0000
ENDCHAR
STARTCHAR C007B
ENCODING -1 123
SWIDTH 571 0
DWIDTH 8 0
BBX 16 14 0 -3
BITMAP
0E00
1800
1800
1800
1800
7000
7000
1800
1800
1800
1800
0E00
0000
0000
ENDCHAR
STARTCHAR C007C
ENCODING -1 124
SWIDTH 143 0
DWIDTH 2 0
BBX 16 14 0 -3
BITMAP
C000
C000
4000
8000
0000
0000
0000
0000
0000
0000
0000
0000
0000
0000
ENDCHAR
STARTCHAR C007D
ENCODING -1 125
SWIDTH 571 0
DWIDTH 8 0
BBX 16 14 0 -3
BITMAP
7000
1800
1800
1800
1800
0E00
0E00
1800
1800
1800
1800
7000
0000
0000
ENDCHAR
STARTCHAR C007E
ENCODING -1 126
SWIDTH 571 0
DWIDTH 8 0
BBX 16 14 0 -3
BITMAP
0000
3C00
6600
6600
0600
0C00
1800
1800
0000
1800
1800
0000
0000
0000
ENDCHAR
STARTCHAR C007F
ENCODING -1 127
SWIDTH 1143 0
DWIDTH 16 0
BBX 16 14 0 -3
BITMAP
0003
0007
000F
001F
00BE
01FC
13F8
37F0
3EE0
7CC0
7880
D000
8000
0000
ENDCHAR
ENDFONT
